<?xml version="1.0" encoding="UTF-8" standalone="no"?>
<svg
   xmlns:dc="http://purl.org/dc/elements/1.1/"
   xmlns:cc="http://creativecommons.org/ns#"
   xmlns:rdf="http://www.w3.org/1999/02/22-rdf-syntax-ns#"
   xmlns:svg="http://www.w3.org/2000/svg"
   xmlns="http://www.w3.org/2000/svg"
   xmlns:sodipodi="http://sodipodi.sourceforge.net/DTD/sodipodi-0.dtd"
   xmlns:inkscape="http://www.inkscape.org/namespaces/inkscape"
   width="512"
   height="512"
   viewBox="0 0 512 512"
   version="1.1"
   id="svg2102"
   sodipodi:docname="chat2.svg"
   inkscape:version="0.92.4 (5da689c313, 2019-01-14)">
  <metadata
     id="metadata2108">
    <rdf:RDF>
      <cc:Work
         rdf:about="">
        <dc:format>image/svg+xml</dc:format>
        <dc:type
           rdf:resource="http://purl.org/dc/dcmitype/StillImage" />
        <dc:title>ionicons-v5-s</dc:title>
      </cc:Work>
    </rdf:RDF>
  </metadata>
  <defs
     id="defs2106" />
  <sodipodi:namedview
     pagecolor="#ffffff"
     bordercolor="#666666"
     borderopacity="1"
     objecttolerance="10"
     gridtolerance="10"
     guidetolerance="10"
     inkscape:pageopacity="0"
     inkscape:pageshadow="2"
     inkscape:window-width="1920"
     inkscape:window-height="1017"
     id="namedview2104"
     showgrid="false"
     inkscape:zoom="0.4609375"
     inkscape:cx="256"
     inkscape:cy="256"
     inkscape:window-x="1919"
     inkscape:window-y="-8"
     inkscape:window-maximized="1"
     inkscape:current-layer="svg2102" />
  <title
     id="title2092">ionicons-v5-s</title>
  <path
     d="M87.48,380c1.2-4.38-1.43-10.47-3.94-14.86A42.63,42.63,0,0,0,81,361.34a199.81,199.81,0,0,1-33-110C47.64,139.09,140.72,48,255.82,48,356.2,48,440,117.54,459.57,209.85A199,199,0,0,1,464,251.49c0,112.41-89.49,204.93-204.59,204.93-18.31,0-43-4.6-56.47-8.37s-26.92-8.77-30.39-10.11a31.14,31.14,0,0,0-11.13-2.07,30.7,30.7,0,0,0-12.08,2.43L81.5,462.78A15.92,15.92,0,0,1,76.84,464a9.61,9.61,0,0,1-9.58-9.74,15.85,15.85,0,0,1,.6-3.29Z"
     style="fill:none;stroke:#ffffff;stroke-linecap:round;stroke-miterlimit:10;stroke-width:32px;stroke-opacity:0.98823529"
     id="path2094" />
  <circle
     cx="160"
     cy="256"
     r="32"
     id="circle2096"
     style="stroke:#ffffff;stroke-opacity:0.98823529;fill:#ffffff;fill-opacity:0.98823529" />
  <circle
     cx="256"
     cy="256"
     r="32"
     id="circle2098"
     style="stroke:#ffffff;stroke-opacity:0.98823529;fill:#ffffff;fill-opacity:0.98823529" />
  <circle
     cx="352"
     cy="256"
     r="32"
     id="circle2100"
     style="stroke:#ffffff;stroke-opacity:0.98823529;fill:#ffffff;fill-opacity:0.98823529" />
</svg>
