<?xml version="1.0" encoding="UTF-8" standalone="no"?>
<svg
   xmlns:dc="http://purl.org/dc/elements/1.1/"
   xmlns:cc="http://creativecommons.org/ns#"
   xmlns:rdf="http://www.w3.org/1999/02/22-rdf-syntax-ns#"
   xmlns:svg="http://www.w3.org/2000/svg"
   xmlns="http://www.w3.org/2000/svg"
   xmlns:sodipodi="http://sodipodi.sourceforge.net/DTD/sodipodi-0.dtd"
   xmlns:inkscape="http://www.inkscape.org/namespaces/inkscape"
   height="512"
   viewBox="0 0 60 60"
   width="512"
   version="1.1"
   id="svg977"
   sodipodi:docname="good-review.svg"
   inkscape:version="0.92.4 (5da689c313, 2019-01-14)">
  <metadata
     id="metadata983">
    <rdf:RDF>
      <cc:Work
         rdf:about="">
        <dc:format>image/svg+xml</dc:format>
        <dc:type
           rdf:resource="http://purl.org/dc/dcmitype/StillImage" />
      </cc:Work>
    </rdf:RDF>
  </metadata>
  <defs
     id="defs981" />
  <sodipodi:namedview
     pagecolor="#ffffff"
     bordercolor="#666666"
     borderopacity="1"
     objecttolerance="10"
     gridtolerance="10"
     guidetolerance="10"
     inkscape:pageopacity="0"
     inkscape:pageshadow="2"
     inkscape:window-width="1920"
     inkscape:window-height="1017"
     id="namedview979"
     showgrid="false"
     inkscape:zoom="0.4609375"
     inkscape:cx="256"
     inkscape:cy="256"
     inkscape:window-x="-8"
     inkscape:window-y="0"
     inkscape:window-maximized="1"
     inkscape:current-layer="svg977" />
  <g
     id="037---Good-Review"
     style="fill:#ffffff;fill-opacity:0.98823529">
    <path
       id="Shape"
       d="m 18,32 h 3 c 1.104569,0 2,-0.895431 2,-2 0.485358,-0.0083 0.96558,0.100388 1.4,0.317 C 26.564,31.4 27.43,32 28.944,32 H 38 c 1.063392,-0.0052 2.045002,-0.571538 2.581816,-1.489503 0.536815,-0.917966 0.549051,-2.051154 0.03218,-2.980497 1.337998,-0.859573 1.776081,-2.611907 1,-4 1.338868,-0.858949 1.777142,-2.612048 1,-4 1.135795,-0.731341 1.643969,-2.1307 1.242123,-3.420433 C 43.454277,14.819835 42.241193,13.956774 40.891,14 H 34.476 C 35.461072,11.90265 35.980953,9.6170849 36,7.3 35.9937,5.6902127 34.826811,4.3198832 33.238594,4.0571596 31.650378,3.7944359 30.104363,4.7159953 29.58,6.238 28.99964,8.0684484 28.189156,9.8177777 27.168,11.444 26.20768,12.986917 24.538575,13.946483 22.722,14 22.367587,13.383249 21.711327,13.002145 21,13 h -3 c -1.104569,0 -2,0.895431 -2,2 v 15 c 0,1.104569 0.895431,2 2,2 z M 28.833,12.554 C 29.953168,10.778167 30.842337,8.8667546 31.479,6.866 31.694611,6.2758577 32.301424,5.9243683 32.920612,6.0309639 33.5398,6.1375595 33.994143,6.6717312 34,7.3 34,10.1 33.233,11.721 32.323,14 H 31 c -0.552285,0 -1,0.447715 -1,1 0,0.552285 0.447715,1 1,1 h 9.891 c 0.424224,-0.04455 0.830007,0.184898 1.010502,0.571385 C 42.081998,16.957872 41.997468,17.416304 41.691,17.713 41.509424,17.898868 41.259827,18.002536 41,18 h -3 c -0.552285,0 -1,0.447715 -1,1 0,0.552285 0.447715,1 1,1 h 2 c 0.552285,0 1,0.447715 1,1 0,0.552285 -0.447715,1 -1,1 h -3 c -0.552285,0 -1,0.447715 -1,1 0,0.552285 0.447715,1 1,1 h 2 c 0.404319,0.0037 0.766632,0.250496 0.91808,0.625397 C 40.069529,25.000298 39.98031,25.429511 39.692,25.713 39.510183,25.899121 39.260173,26.00281 39,26 h -3 c -0.552285,0 -1,0.447715 -1,1 0,0.552285 0.447715,1 1,1 h 2 c 0.552285,0 1,0.447715 1,1 0,0.552285 -0.447715,1 -1,1 C 27.99,30 28.448,30.107 27.6,29.683 25.436,28.6 24.57,28 23.056,28 22.956,28 23,28.921 23,16 c 2.384669,-0.146066 4.554319,-1.427844 5.833,-3.446 z M 18,15 h 3 v 15 h -3 z"
       inkscape:connector-curvature="0"
       style="fill:#ffffff;fill-opacity:0.98823529" />
    <path
       id="path968"
       d="M 54.473,43.735 51.121,43.227 49.613,40.034 C 49.323536,39.403769 48.693528,38.999848 48,38.999848 c -0.693528,0 -1.323536,0.403921 -1.613,1.034152 l -1.508,3.193 -3.352,0.508 c -0.67424,0.115665 -1.228457,0.596213 -1.438474,1.247266 -0.210017,0.651054 -0.04108,1.364877 0.438474,1.852734 l 2.451,2.5 -0.578,3.535 c -0.09165,0.523693 0.05066,1.061254 0.389424,1.471002 0.338763,0.409749 0.83999,0.650572 1.371576,0.658998 0.6,0 0.619,-0.093 3.839,-1.862 l 2.988,1.642 c 0.608827,0.321512 1.347719,0.267561 1.903387,-0.138978 C 53.447054,54.234483 53.722137,53.546586 53.6,52.869 l -0.581,-3.537 2.451,-2.5 c 0.477023,-0.48786 0.644724,-1.199729 0.435636,-1.849221 C 55.696549,44.333286 55.145047,43.852946 54.473,43.735 Z m -2.935,4.255 c -0.410905,0.421857 -0.59655,1.014067 -0.5,1.595 l 0.529,3.231 c -4.173,-2.293 -3,-2.275 -7.136,0 l 0.529,-3.228 c 0.09756,-0.58252 -0.08812,-1.17668 -0.5,-1.6 l -2.285,-2.328 3.119,-0.473 c 0.591455,-0.09178 1.09818,-0.472483 1.351,-1.015 L 48,41.3 l 1.355,2.871 c 0.253479,0.541562 0.759345,0.921898 1.35,1.015 l 3.12,0.473 z"
       inkscape:connector-curvature="0"
       style="fill:#ffffff;fill-opacity:0.98823529" />
    <path
       id="path970"
       d="M 36.473,43.735 33.121,43.227 31.613,40.034 C 31.323536,39.403769 30.693528,38.999848 30,38.999848 c -0.693528,0 -1.323536,0.403921 -1.613,1.034152 l -1.508,3.193 -3.352,0.508 c -0.67424,0.115665 -1.228457,0.596213 -1.438474,1.247266 -0.210017,0.651054 -0.04108,1.364877 0.438474,1.852734 l 2.451,2.5 -0.578,3.535 c -0.09165,0.523693 0.05066,1.061254 0.389424,1.471002 0.338763,0.409749 0.83999,0.650572 1.371576,0.658998 0.6,0 0.619,-0.093 3.839,-1.862 l 2.988,1.642 c 0.608827,0.321512 1.34772,0.267561 1.903387,-0.138978 C 35.447054,54.234483 35.722137,53.546586 35.6,52.869 l -0.581,-3.537 2.451,-2.5 c 0.477023,-0.48786 0.644724,-1.199729 0.435637,-1.849221 C 37.696549,44.333286 37.145047,43.852946 36.473,43.735 Z m -2.935,4.255 c -0.410905,0.421857 -0.59655,1.014067 -0.5,1.595 l 0.529,3.231 c -4.173,-2.293 -3,-2.275 -7.136,0 l 0.529,-3.228 c 0.09756,-0.58252 -0.08812,-1.17668 -0.5,-1.6 l -2.285,-2.328 3.119,-0.473 c 0.591455,-0.09178 1.098181,-0.472483 1.351,-1.015 L 30,41.3 l 1.355,2.871 c 0.253479,0.541562 0.759345,0.921898 1.35,1.015 l 3.12,0.473 z"
       inkscape:connector-curvature="0"
       style="fill:#ffffff;fill-opacity:0.98823529" />
    <path
       id="path972"
       d="M 18.473,43.735 15.121,43.227 13.613,40.034 C 13.323536,39.403769 12.693528,38.999848 12,38.999848 c -0.693528,0 -1.323536,0.403921 -1.613,1.034152 L 8.879,43.227 5.527,43.735 C 4.8527599,43.850665 4.2985432,44.331213 4.0885259,44.982266 3.8785086,45.63332 4.0474444,46.347143 4.527,46.835 l 2.451,2.5 L 6.4,52.87 C 6.30835,53.393693 6.45066,53.931254 6.7894238,54.341002 7.1281874,54.750751 7.6294144,54.991574 8.161,55 8.761,55 8.78,54.907 12,53.138 l 2.988,1.642 c 0.608827,0.321512 1.347719,0.267561 1.903387,-0.138978 C 17.447054,54.234483 17.722137,53.546586 17.6,52.869 l -0.581,-3.537 2.451,-2.5 c 0.477023,-0.48786 0.644724,-1.199729 0.435637,-1.849221 C 19.696549,44.333286 19.145047,43.852946 18.473,43.735 Z m -2.935,4.255 c -0.410905,0.421857 -0.59655,1.014067 -0.5,1.595 l 0.529,3.231 c -4.173,-2.293 -3,-2.275 -7.136,0 L 8.96,49.588 c 0.097558,-0.58252 -0.088117,-1.17668 -0.5,-1.6 L 6.175,45.66 9.294,45.187 c 0.5914549,-0.09178 1.09818,-0.472483 1.351,-1.015 L 12,41.3 l 1.355,2.871 c 0.253479,0.541562 0.759345,0.921898 1.35,1.015 l 3.12,0.473 z"
       inkscape:connector-curvature="0"
       style="fill:#ffffff;fill-opacity:0.98823529" />
    <path
       id="path974"
       d="M 56,0 H 4 C 1.790861,0 0,1.790861 0,4 v 52 c 0,2.209139 1.790861,4 4,4 h 52 c 2.209139,0 4,-1.790861 4,-4 V 4 C 60,1.790861 58.209139,0 56,0 Z M 4,2 h 52 c 1.104569,0 2,0.8954305 2,2 V 34 H 2 V 4 C 2,2.8954305 2.8954305,2 4,2 Z M 56,58 H 4 C 2.8954305,58 2,57.104569 2,56 V 36 h 56 v 20 c 0,1.104569 -0.895431,2 -2,2 z"
       inkscape:connector-curvature="0"
       style="fill:#ffffff;fill-opacity:0.98823529" />
  </g>
</svg>
